<svg width="64" height="64" viewBox="0 0 64 64" fill="none" xmlns="http://www.w3.org/2000/svg">
<g clip-path="url(#clip0_2063_3)">
<path d="M59.4286 29.7143H41.1429C39.8805 29.7143 38.8571 30.7376 38.8571 32V59.4286C38.8571 60.6909 39.8805 61.7143 41.1429 61.7143H59.4286C60.6909 61.7143 61.7143 60.6909 61.7143 59.4286V32C61.7143 30.7376 60.6909 29.7143 59.4286 29.7143Z" stroke="#F8F4F0" stroke-width="4" stroke-linecap="round" stroke-linejoin="round"/>
<path d="M59.4286 2.28571H41.1429C39.8805 2.28571 38.8571 3.30906 38.8571 4.57143V13.76C38.8571 15.0224 39.8805 16.0457 41.1429 16.0457H59.4286C60.6909 16.0457 61.7143 15.0224 61.7143 13.76V4.57143C61.7143 3.30906 60.6909 2.28571 59.4286 2.28571Z" stroke="#F8F4F0" stroke-width="4" stroke-linecap="round" stroke-linejoin="round"/>
<path d="M22.8571 2.28571H4.57143C3.30906 2.28571 2.28572 3.30906 2.28572 4.57143V32C2.28572 33.2624 3.30906 34.2857 4.57143 34.2857H22.8571C24.1195 34.2857 25.1429 33.2624 25.1429 32V4.57143C25.1429 3.30906 24.1195 2.28571 22.8571 2.28571Z" stroke="#F8F4F0" stroke-width="4" stroke-linecap="round" stroke-linejoin="round"/>
<path d="M22.8571 47.9543H4.57143C3.30906 47.9543 2.28572 48.9776 2.28572 50.24V59.4286C2.28572 60.6909 3.30906 61.7143 4.57143 61.7143H22.8571C24.1195 61.7143 25.1429 60.6909 25.1429 59.4286V50.24C25.1429 48.9776 24.1195 47.9543 22.8571 47.9543Z" stroke="#F8F4F0" stroke-width="4" stroke-linecap="round" stroke-linejoin="round"/>
</g>
<defs>
<clipPath id="clip0_2063_3">
<rect width="64" height="64" fill="white"/>
</clipPath>
</defs>
</svg>
